<svg xmlns="http://www.w3.org/2000/svg" viewBox="0 0 423.72 279.82"><defs><style>.cls-1{fill:#7171a2;}.cls-2{fill:#ffc219;}.cls-3{fill:#fff;}</style></defs><g id="Layer_2" data-name="Layer 2"><g id="Layer_1-2" data-name="Layer 1"><rect class="cls-1" x="171.67" y="6.49" width="184.36" height="266.85" transform="translate(25.58 319.97) rotate(-65.01)"/><ellipse class="cls-2" cx="107.03" cy="166.15" rx="107.03" ry="108.52"/><path class="cls-3" d="M61.37,177.33V151.64H77.85v25.54q0,23.91-20,23.91H54.09q-20.64,0-20.64-23.32V110.36q0-9.51,4.75-15.82t15.3-6.31h3.86a27.22,27.22,0,0,1,10.91,1.93,12.46,12.46,0,0,1,6.31,5.64,26.25,26.25,0,0,1,2.6,7.21,43.89,43.89,0,0,1,.67,8.24V131H61.37V111.54q0-7.26-5.64-7.27c-2,0-3.35.57-4.09,1.71s-1.11,3-1.11,5.56v65.64q0,7.57,5.34,7.57Q61.38,184.75,61.37,177.33Z"/><path class="cls-3" d="M111.86,199.75,109.63,179H97.3l-2.07,20.79h-15L93.74,89.27h19.9L128,199.75Zm-8.47-78.11-4.3,40.84h8.76Z"/><path class="cls-3" d="M148.09,150.45v49.3H131.31V89.27h27.17q8.61,0,12.7,3.94t4.08,13.14V126q0,11.13-7.27,14.11,7.27,3.25,7.27,12v38.76A19.41,19.41,0,0,0,176.9,199v.74H160.27q-1.64-2.67-1.64-9.06V157.43c0-2.57-.39-4.38-1.19-5.42s-2.47-1.56-5-1.56Zm0-46.18v30.44h4.45q6.09,0,6.09-7.87V111.4c0-2.58-.39-4.41-1.19-5.5s-2.42-1.63-4.9-1.63Z"/><path class="cls-3" d="M208.23,153.87h-9.8v45.88H181.65V89.27h26.58q9.06,0,13.14,4.23t4.08,14v26.13Q225.45,153.88,208.23,153.87Zm-9.8-49.6V138h4.3q3.57,0,4.68-2a12.73,12.73,0,0,0,1.12-6V111.84a10.91,10.91,0,0,0-1.19-5.64c-.8-1.29-2.33-1.93-4.61-1.93Z"/><path class="cls-3" d="M231.1,89.27h38.16v16H247.88v29h16.78v16.78H247.88V183h22.27v16.78h-39Z"/><path class="cls-3" d="M273,89.27h44.85v16H303.71v94.44H287.08V105.31H273Z"/><path class="cls-3" d="M320.49,89.27h44.84v16h-14.1v94.44H334.6V105.31H320.49Z"/><path class="cls-3" d="M386.87,89.27V199.75H370.09V89.27Z"/></g></g></svg>